<?xml version="1.0" encoding="UTF-8" standalone="no"?>
<!DOCTYPE svg PUBLIC "-//W3C//DTD SVG 1.1//EN" "http://www.w3.org/Graphics/SVG/1.1/DTD/svg11.dtd">
<!-- Created with Vectornator (http://vectornator.io/) -->
<svg height="100%" stroke-miterlimit="10" style="fill-rule:nonzero;clip-rule:evenodd;stroke-linecap:round;stroke-linejoin:round;" version="1.1" viewBox="0 0 225 225" width="100%" xml:space="preserve" xmlns="http://www.w3.org/2000/svg" xmlns:vectornator="http://vectornator.io" xmlns:xlink="http://www.w3.org/1999/xlink">
<defs/>
<g id="Без-названия-скопировать" vectornator:layerName="Без названия скопировать">
<g opacity="1" vectornator:layerName="g">
<path d="M100.165 5.72906C56.9652 10.2291 19.8652 42.3291 7.96521 85.3291C5.46521 94.3291 5.16521 96.6291 5.16521 112.629C5.16521 128.629 5.46521 130.929 7.96521 139.929C11.4652 152.829 18.1652 166.429 25.5652 176.329C66.0652 230.029 142.865 235.229 189.365 187.329C211.765 164.229 221.965 135.729 219.465 102.829C217.665 78.3291 205.965 54.0291 187.365 35.9291C169.465 18.5291 148.065 8.42906 123.365 5.72906C112.765 4.52906 111.765 4.52906 100.165 5.72906ZM133.565 10.1291C192.965 22.6291 229.865 83.4291 213.065 141.229C207.665 159.829 199.865 172.829 185.265 187.129C173.665 198.429 163.565 205.029 149.665 210.229C135.365 215.629 127.965 216.929 111.665 216.929C95.5652 216.929 84.9652 214.729 70.7652 208.729C54.3652 201.729 35.4652 186.229 25.6652 171.729C19.7652 162.929 13.2652 148.729 10.4652 138.629C8.46521 131.229 8.16521 127.729 8.16521 112.629C8.16521 92.2291 9.76521 84.5291 17.0652 69.0291C22.9652 56.5291 28.5652 48.6291 38.0652 39.0291C54.5652 22.4291 76.6652 11.5291 99.5652 8.62906C108.265 7.52906 124.565 8.22906 133.565 10.1291Z" fill="#ffffff" fill-rule="nonzero" opacity="1" stroke="none" vectornator:layerName="path"/>
<path d="M100.865 15.6291C79.4652 18.6291 60.4652 27.8291 45.2652 42.5291C35.4652 52.0291 29.8652 59.8291 24.1652 71.8291C17.4652 86.0291 15.2652 96.2291 15.2652 113.129C15.2652 130.029 17.4652 140.229 24.1652 154.429C29.8652 166.429 35.4652 174.229 45.2652 183.729C57.9652 196.029 71.6652 203.629 89.5652 208.329C103.365 212.029 122.965 212.029 136.765 208.329C154.565 203.629 167.665 196.329 181.065 183.629C190.765 174.329 196.365 166.629 202.165 154.429C208.865 140.229 211.065 130.029 211.065 113.129C211.065 96.2291 208.865 86.0291 202.165 71.8291C196.365 59.6291 190.765 51.9291 181.065 42.6291C167.665 29.9291 154.365 22.4291 137.065 18.0291C126.365 15.3291 110.365 14.3291 100.865 15.6291ZM158.665 76.1291C158.665 83.5291 159.065 89.6291 159.465 89.6291C159.865 89.6291 160.865 89.0291 161.465 88.3291C162.365 87.5291 168.165 87.0291 181.365 86.8291L199.965 86.4291L198.065 89.0291C191.965 97.3291 113.965 190.529 113.165 190.529C112.365 190.529 32.0652 94.7291 27.7652 88.5291C26.3652 86.4291 26.3652 86.4291 44.9652 86.8291C58.1652 87.0291 63.9652 87.5291 64.8652 88.3291C65.4652 89.0291 66.4652 89.6291 66.8652 89.6291C67.2652 89.6291 67.6652 83.5291 67.6652 76.1291L67.6652 62.7291L113.165 62.7291L158.665 62.7291L158.665 76.1291Z" fill="#ffffff" fill-rule="nonzero" opacity="1" stroke="none" vectornator:layerName="path"/>
<path d="M72.6652 81.5291L72.6652 95.5291L84.7652 110.329C91.4652 118.429 97.5652 125.829 98.2652 126.629C99.4652 127.829 99.6652 124.829 99.6652 106.329L99.6652 84.6291L90.6652 84.6291L81.6652 84.6291L81.6652 80.6291L81.6652 76.6291L95.1652 76.6291L108.665 76.6291L108.665 104.529L108.665 132.529L106.065 132.829L103.365 133.129L108.165 139.029L112.965 144.929L116.865 140.529C122.765 133.829 123.265 132.629 120.165 132.629L117.665 132.629L117.665 104.629L117.665 76.6291L122.165 76.6291L126.665 76.6291L126.665 102.329L126.665 128.129L131.165 123.129L135.565 118.129L135.665 105.329L135.665 92.5291L139.965 92.8291L144.165 93.1291L144.665 99.6291L145.165 106.129L148.865 101.529L152.565 97.0291L152.865 82.3291L153.165 67.6291L148.965 67.6291L144.665 67.6291L144.665 76.1291L144.665 84.6291L140.165 84.6291L135.665 84.6291L135.665 76.1291L135.665 67.6291L126.765 67.6291C119.665 67.6291 117.465 68.0291 115.565 69.5291C113.165 71.4291 113.065 71.4291 110.765 69.5291C108.665 67.8291 106.665 67.6291 90.5652 67.6291L72.6652 67.6291L72.6652 81.5291ZM90.6652 98.2291L90.6652 103.929L86.6652 98.8291C84.4652 96.1291 82.6652 93.5291 82.6652 93.2291C82.6652 92.9291 84.4652 92.6291 86.6652 92.6291L90.6652 92.6291L90.6652 98.2291Z" fill="#e23620" fill-rule="nonzero" opacity="1" stroke="none" vectornator:layerName="path"/>
<path d="M39.7652 94.3291C55.4652 113.529 112.865 182.129 113.165 182.129C113.465 182.129 130.265 162.129 150.565 137.629L187.565 93.1291L177.365 92.8291C171.765 92.6291 166.165 92.8291 164.965 93.1291C163.565 93.4291 153.065 105.429 138.165 123.629C124.565 140.129 113.365 153.629 113.165 153.629C112.965 153.629 101.765 140.229 88.2652 123.729C74.7652 107.329 63.0652 93.6291 62.1652 93.2291C61.2652 92.9291 55.5652 92.6291 49.4652 92.6291C39.2652 92.6291 38.5652 92.7291 39.7652 94.3291Z" fill="#e23620" fill-rule="nonzero" opacity="1" stroke="none" vectornator:layerName="path"/>
</g>
</g>
<g id="Без-названия-скопировать-скопировать" vectornator:layerName="Без названия скопировать скопировать">
<g opacity="1" vectornator:layerName="g">
<path d="M100.165 5.72906C56.9652 10.2291 19.8652 42.3291 7.96521 85.3291C5.46521 94.3291 5.16521 96.6291 5.16521 112.629C5.16521 128.629 5.46521 130.929 7.96521 139.929C11.4652 152.829 18.1652 166.429 25.5652 176.329C66.0652 230.029 142.865 235.229 189.365 187.329C211.765 164.229 221.965 135.729 219.465 102.829C217.665 78.3291 205.965 54.0291 187.365 35.9291C169.465 18.5291 148.065 8.42906 123.365 5.72906C112.765 4.52906 111.765 4.52906 100.165 5.72906ZM133.565 10.1291C192.965 22.6291 229.865 83.4291 213.065 141.229C207.665 159.829 199.865 172.829 185.265 187.129C173.665 198.429 163.565 205.029 149.665 210.229C135.365 215.629 127.965 216.929 111.665 216.929C95.5652 216.929 84.9652 214.729 70.7652 208.729C54.3652 201.729 35.4652 186.229 25.6652 171.729C19.7652 162.929 13.2652 148.729 10.4652 138.629C8.46521 131.229 8.16521 127.729 8.16521 112.629C8.16521 92.2291 9.76521 84.5291 17.0652 69.0291C22.9652 56.5291 28.5652 48.6291 38.0652 39.0291C54.5652 22.4291 76.6652 11.5291 99.5652 8.62906C108.265 7.52906 124.565 8.22906 133.565 10.1291Z" fill="#00a544" fill-rule="nonzero" opacity="1" stroke="none" vectornator:layerName="path"/>
<path d="M100.865 15.6291C79.4652 18.6291 60.4652 27.8291 45.2652 42.5291C35.4652 52.0291 29.8652 59.8291 24.1652 71.8291C17.4652 86.0291 15.2652 96.2291 15.2652 113.129C15.2652 130.029 17.4652 140.229 24.1652 154.429C29.8652 166.429 35.4652 174.229 45.2652 183.729C57.9652 196.029 71.6652 203.629 89.5652 208.329C103.365 212.029 122.965 212.029 136.765 208.329C154.565 203.629 167.665 196.329 181.065 183.629C190.765 174.329 196.365 166.629 202.165 154.429C208.865 140.229 211.065 130.029 211.065 113.129C211.065 96.2291 208.865 86.0291 202.165 71.8291C196.365 59.6291 190.765 51.9291 181.065 42.6291C167.665 29.9291 154.365 22.4291 137.065 18.0291C126.365 15.3291 110.365 14.3291 100.865 15.6291ZM158.665 76.1291C158.665 83.5291 159.065 89.6291 159.465 89.6291C159.865 89.6291 160.865 89.0291 161.465 88.3291C162.365 87.5291 168.165 87.0291 181.365 86.8291L199.965 86.4291L198.065 89.0291C191.965 97.3291 113.965 190.529 113.165 190.529C112.365 190.529 32.0652 94.7291 27.7652 88.5291C26.3652 86.4291 26.3652 86.4291 44.9652 86.8291C58.1652 87.0291 63.9652 87.5291 64.8652 88.3291C65.4652 89.0291 66.4652 89.6291 66.8652 89.6291C67.2652 89.6291 67.6652 83.5291 67.6652 76.1291L67.6652 62.7291L113.165 62.7291L158.665 62.7291L158.665 76.1291Z" fill="#00a544" fill-rule="nonzero" opacity="1" stroke="none" vectornator:layerName="path"/>
</g>
</g>
</svg>
